<svg xmlns="http://www.w3.org/2000/svg" width="1280" height="860" viewBox="0 0 1280 860" role="group" aria-labelledby="map-title map-desc" font-family="Microsoft YaHei, PingFang SC, sans-serif"><title id="map-title">展开中心城区 · 西安旅游理解图</title><desc id="map-desc">根据13个高德地点坐标绘制，北方朝上。所有名称细线是标签引线，不是道路。完整坐标和来源可在网页地点列表查看。</desc><rect width="1280" height="860" fill="#f1f3e9"/><text x="36" y="40" font-size="13" fill="#67775f" letter-spacing="2">CITY READING / XI’AN · 001</text><text x="36" y="86" font-size="32" fill="#203f32" font-weight="700">西安 · 先认识位置，再安排探索</text><text x="36" y="116" font-size="16" fill="#66745e" >以钟楼作参考，从钟鼓楼、永宁门向南认识雁塔一带。</text><rect x="28" y="146" width="1224" height="600" rx="20" fill="#fbfaf4" stroke="#d9dfd4"/><text x="53" y="182" font-size="20" fill="#234a3b" font-weight="700">展开中心城区</text><text x="53" y="208" font-size="13" fill="#647469" >点是地理参考位置，细线只连接标签与地点</text><path d="M 53 231 V 688" stroke="#edf0e7"/><path d="M 93 231 V 688" stroke="#edf0e7"/><path d="M 133 231 V 688" stroke="#edf0e7"/><path d="M 173 231 V 688" stroke="#edf0e7"/><path d="M 213 231 V 688" stroke="#edf0e7"/><path d="M 253 231 V 688" stroke="#edf0e7"/><path d="M 293 231 V 688" stroke="#edf0e7"/><path d="M 333 231 V 688" stroke="#edf0e7"/><path d="M 373 231 V 688" stroke="#edf0e7"/><path d="M 413 231 V 688" stroke="#edf0e7"/><path d="M 453 231 V 688" stroke="#edf0e7"/><path d="M 493 231 V 688" stroke="#edf0e7"/><path d="M 533 231 V 688" stroke="#edf0e7"/><path d="M 573 231 V 688" stroke="#edf0e7"/><path d="M 613 231 V 688" stroke="#edf0e7"/><path d="M 653 231 V 688" stroke="#edf0e7"/><path d="M 693 231 V 688" stroke="#edf0e7"/><path d="M 733 231 V 688" stroke="#edf0e7"/><path d="M 773 231 V 688" stroke="#edf0e7"/><path d="M 813 231 V 688" stroke="#edf0e7"/><path d="M 853 231 V 688" stroke="#edf0e7"/><path d="M 893 231 V 688" stroke="#edf0e7"/><path d="M 933 231 V 688" stroke="#edf0e7"/><path d="M 973 231 V 688" stroke="#edf0e7"/><path d="M 1013 231 V 688" stroke="#edf0e7"/><path d="M 1053 231 V 688" stroke="#edf0e7"/><path d="M 1093 231 V 688" stroke="#edf0e7"/><path d="M 1133 231 V 688" stroke="#edf0e7"/><path d="M 1173 231 V 688" stroke="#edf0e7"/><path d="M 1213 231 V 688" stroke="#edf0e7"/><path d="M 53 231 H 1227" stroke="#edf0e7"/><path d="M 53 271 H 1227" stroke="#edf0e7"/><path d="M 53 311 H 1227" stroke="#edf0e7"/><path d="M 53 351 H 1227" stroke="#edf0e7"/><path d="M 53 391 H 1227" stroke="#edf0e7"/><path d="M 53 431 H 1227" stroke="#edf0e7"/><path d="M 53 471 H 1227" stroke="#edf0e7"/><path d="M 53 511 H 1227" stroke="#edf0e7"/><path d="M 53 551 H 1227" stroke="#edf0e7"/><path d="M 53 591 H 1227" stroke="#edf0e7"/><path d="M 53 631 H 1227" stroke="#edf0e7"/><path d="M 53 671 H 1227" stroke="#edf0e7"/><circle cx="588.9156703014843" cy="361.2522460892786" r="10" fill="#a55036" opacity="1"/><circle cx="572.5578974093585" cy="356.88745990484745" r="5" fill="#a55036" opacity="1"/><circle cx="588.9110205650287" cy="410.58107964303036" r="5" fill="#a55036" opacity="1"/><circle cx="564.0070320458889" cy="478.47712865417515" r="5" fill="#a55036" opacity="1"/><circle cx="626.1786583508176" cy="559.4169136984806" r="5" fill="#376b59" opacity="1"/><circle cx="668.6400517706036" cy="592.9965187515985" r="5" fill="#376b59" opacity="1"/><circle cx="715.9929679541111" cy="624" r="5" fill="#376b59" opacity="1"/><circle cx="661.8839846835577" cy="254" r="5" fill="#486b8b" opacity="1"/><g data-place="bell" role="button" tabindex="0" aria-label="查看西安钟楼的地理依据" style="cursor:pointer"><title>西安钟楼 · 地标参考点</title><path d="M 588.9156703014843 361.2522460892786 L 606.9156703014843 361.2522460892786" stroke="#a55036" stroke-width="1.1" opacity=".6"/><circle cx="588.9156703014843" cy="361.2522460892786" r="9" fill="#a55036" stroke="#fff" stroke-width="2"/><rect x="606.9156703014843" y="346.2522460892786" width="67" height="30" rx="7" fill="#a55036" stroke="#a55036"/><text x="615.9156703014843" y="366.2522460892786" font-size="12" fill="#fff" >01</text><text x="638.9156703014843" y="367.2522460892786" font-size="15" fill="#fff" >钟楼</text></g><g data-place="drum" role="button" tabindex="0" aria-label="查看西安鼓楼的地理依据" style="cursor:pointer"><title>西安鼓楼 · 地标参考点</title><path d="M 572.5578974093585 356.88745990484745 L 554.5578974093585 356.88745990484745" stroke="#a55036" stroke-width="1.1" opacity=".6"/><circle cx="572.5578974093585" cy="356.88745990484745" r="6" fill="#a55036" stroke="#fff" stroke-width="2"/><rect x="487.5578974093585" y="341.88745990484745" width="67" height="30" rx="7" fill="#fffef9" stroke="#dfe3da"/><text x="496.5578974093585" y="361.88745990484745" font-size="12" fill="#a55036" >02</text><text x="519.5578974093585" y="362.88745990484745" font-size="15" fill="#253b36" >鼓楼</text></g><g data-place="south-gate" role="button" tabindex="0" aria-label="查看西安城墙（永宁门）的地理依据" style="cursor:pointer"><title>西安城墙（永宁门） · 城门地点；开放入口待核实</title><path d="M 588.9110205650287 410.58107964303036 L 606.9110205650287 410.58107964303036" stroke="#a55036" stroke-width="1.1" opacity=".6"/><circle cx="588.9110205650287" cy="410.58107964303036" r="6" fill="#a55036" stroke="#fff" stroke-width="2"/><rect x="606.9110205650287" y="395.58107964303036" width="82" height="30" rx="7" fill="#fffef9" stroke="#dfe3da"/><text x="615.9110205650287" y="415.58107964303036" font-size="12" fill="#a55036" >03</text><text x="638.9110205650287" y="416.58107964303036" font-size="15" fill="#253b36" >永宁门</text></g><g data-place="xian-museum" role="button" tabindex="0" aria-label="查看西安博物院的地理依据" style="cursor:pointer"><title>西安博物院 · 院区参考点；非入口</title><path d="M 564.0070320458889 478.47712865417515 L 582.0070320458889 478.47712865417515" stroke="#a55036" stroke-width="1.1" opacity=".6"/><circle cx="564.0070320458889" cy="478.47712865417515" r="6" fill="#a55036" stroke="#fff" stroke-width="2"/><rect x="582.0070320458889" y="463.47712865417515" width="112" height="30" rx="7" fill="#fffef9" stroke="#dfe3da"/><text x="591.0070320458889" y="483.47712865417515" font-size="12" fill="#a55036" >04</text><text x="614.0070320458889" y="484.47712865417515" font-size="15" fill="#253b36" >西安博物院</text></g><g data-place="history" role="button" tabindex="0" aria-label="查看陕西历史博物馆（本馆）的地理依据" style="cursor:pointer"><title>陕西历史博物馆（本馆） · 馆区参考点；非入口</title><path d="M 626.1786583508176 559.4169136984806 L 644.1786583508176 559.4169136984806" stroke="#376b59" stroke-width="1.1" opacity=".6"/><circle cx="626.1786583508176" cy="559.4169136984806" r="6" fill="#376b59" stroke="#fff" stroke-width="2"/><rect x="644.1786583508176" y="544.4169136984806" width="127" height="30" rx="7" fill="#fffef9" stroke="#dfe3da"/><text x="653.1786583508176" y="564.4169136984806" font-size="12" fill="#376b59" >05</text><text x="676.1786583508176" y="565.4169136984806" font-size="15" fill="#253b36" >陕历博·本馆</text></g><g data-place="pagoda" role="button" tabindex="0" aria-label="查看大雁塔的地理依据" style="cursor:pointer"><title>大雁塔 · 塔体参考点；非景区入口</title><path d="M 668.6400517706036 592.9965187515985 L 650.6400517706036 620.9965187515985" stroke="#376b59" stroke-width="1.1" opacity=".6"/><circle cx="668.6400517706036" cy="592.9965187515985" r="6" fill="#376b59" stroke="#fff" stroke-width="2"/><rect x="568.6400517706036" y="620.9965187515985" width="82" height="30" rx="7" fill="#fffef9" stroke="#dfe3da"/><text x="577.6400517706036" y="640.9965187515985" font-size="12" fill="#376b59" >06</text><text x="600.6400517706036" y="641.9965187515985" font-size="15" fill="#253b36" >大雁塔</text></g><g data-place="garden" role="button" tabindex="0" aria-label="查看大唐芙蓉园的地理依据" style="cursor:pointer"><title>大唐芙蓉园 · 园区参考点；非入口</title><path d="M 715.9929679541111 624 L 733.9929679541111 624" stroke="#376b59" stroke-width="1.1" opacity=".6"/><circle cx="715.9929679541111" cy="624" r="6" fill="#376b59" stroke="#fff" stroke-width="2"/><rect x="733.9929679541111" y="609" width="112" height="30" rx="7" fill="#fffef9" stroke="#dfe3da"/><text x="742.9929679541111" y="629" font-size="12" fill="#376b59" >07</text><text x="765.9929679541111" y="630" font-size="15" fill="#253b36" >大唐芙蓉园</text></g><g data-place="station" role="button" tabindex="0" aria-label="查看西安站的地理依据" style="cursor:pointer"><title>西安站 · 铁路车站参考点；非地铁站</title><path d="M 661.8839846835577 254 L 679.8839846835577 254" stroke="#486b8b" stroke-width="1.1" opacity=".6"/><circle cx="661.8839846835577" cy="254" r="6" fill="#486b8b" stroke="#fff" stroke-width="2"/><rect x="679.8839846835577" y="239" width="82" height="30" rx="7" fill="#fffef9" stroke="#dfe3da"/><text x="688.8839846835577" y="259" font-size="12" fill="#486b8b" >11</text><text x="711.8839846835577" y="260" font-size="15" fill="#253b36" >西安站</text></g><path d="M 54 712 V 718 H 155.16858502548547 V 712" fill="none" stroke="#445d50" stroke-width="2"/><text x="54" y="705" font-size="12" fill="#556a5d" >约 2 km</text><text x="1174" y="721" font-size="15" fill="#445d50" >北 ↑</text><text x="36" y="784" font-size="16" fill="#415944" >阅读提示：同一幅图内保留方位和距离比例；不同图幅请分别看比例尺。</text><text x="36" y="813" font-size="13" fill="#68755f" >地点来源：高德公开地点页 · GCJ-02 · 2026-09-14 核对 · 点位通常不是入口</text><text x="36" y="838" font-size="13" fill="#68755f" >本版为精选地点关系示意，未绘制道路、行政边界或完整景区范围；不提供导航及车程。</text></svg>