<svg xmlns="http://www.w3.org/2000/svg" width="1400" height="900" viewBox="0 0 1400 900" role="img" aria-label="西安八处景区位置实验底稿" font-family="Microsoft YaHei, sans-serif"><rect width="1400" height="900" fill="#f5f2e7"/><text x="48" y="62" font-size="32" fill="#354c40">西安 · 景区位置实验底稿</text><text x="48" y="99" font-size="17" fill="#354c40">内部生成依据：真实点位投影；不代表最终插画效果</text><rect x="45" y="125" width="935" height="700" rx="16" fill="#faf9f2" stroke="#d9ddcd"/><circle cx="628.2886221902274" cy="407.5478793060558" r="13.221571899888456" fill="#e1e9d6" stroke="#6d8563" stroke-dasharray="4 4"/><circle cx="628.2886221902274" cy="407.5478793060558" r="4" fill="#355c49"/><text x="636.2886221902274" y="399.5478793060558" font-size="14" fill="#354c40">01</text><circle cx="643.2221404893509" cy="450.96031614223756" r="16.06820092616474" fill="#e1e9d6" stroke="#6d8563" stroke-dasharray="4 4"/><circle cx="643.2221404893509" cy="450.96031614223756" r="4" fill="#355c49"/><text x="651.2221404893509" y="442.96031614223756" font-size="14" fill="#354c40">02</text><circle cx="642.6594988924145" cy="372.6122526042687" r="13.221571899888456" fill="#e1e9d6" stroke="#6d8563" stroke-dasharray="4 4"/><circle cx="642.6594988924145" cy="372.6122526042687" r="4" fill="#355c49"/><text x="650.6594988924145" y="364.6122526042687" font-size="14" fill="#354c40">03</text><circle cx="630.2674483640108" cy="214.84348504146612" r="34" fill="#e1e9d6" stroke="#6d8563" stroke-dasharray="4 4"/><circle cx="630.2674483640108" cy="214.84348504146612" r="4" fill="#355c49"/><text x="638.2674483640108" y="206.84348504146612" font-size="14" fill="#354c40">04</text><circle cx="862.3414297841861" cy="305.0274725371303" r="22.923720795179243" fill="#e1e9d6" stroke="#6d8563" stroke-dasharray="4 4"/><circle cx="862.3414297841861" cy="305.0274725371303" r="4" fill="#355c49"/><text x="870.3414297841861" y="297.0274725371303" font-size="14" fill="#354c40">05</text><circle cx="920" cy="273.9588306946538" r="22.923720795179243" fill="#e1e9d6" stroke="#6d8563" stroke-dasharray="4 4"/><circle cx="920" cy="273.9588306946538" r="4" fill="#355c49"/><text x="928" y="265.9588306946538" font-size="14" fill="#354c40">06</text><circle cx="682.7368256470074" cy="715.1565149585339" r="34" fill="#e1e9d6" stroke="#6d8563" stroke-dasharray="4 4"/><circle cx="682.7368256470074" cy="715.1565149585339" r="4" fill="#355c49"/><text x="690.7368256470074" y="707.1565149585339" font-size="14" fill="#354c40">07</text><circle cx="90" cy="604.4964738467642" r="34" fill="#e1e9d6" stroke="#6d8563" stroke-dasharray="4 4"/><circle cx="90" cy="604.4964738467642" r="4" fill="#355c49"/><text x="98" y="596.4964738467642" font-size="14" fill="#354c40">08</text><text x="890" y="160" font-size="20" fill="#354c40">北 ↑</text><text x="1010" y="164" font-size="20" fill="#354c40">01  钟楼</text><text x="1010" y="189" font-size="13" fill="#354c40">城市地标</text><text x="1010" y="239" font-size="20" fill="#354c40">02  大雁塔</text><text x="1010" y="264" font-size="13" fill="#354c40">历史建筑</text><text x="1010" y="314" font-size="20" fill="#354c40">03  大明宫</text><text x="1010" y="339" font-size="13" fill="#354c40">唐代遗址</text><text x="1010" y="389" font-size="20" fill="#354c40">04  汉阳陵</text><text x="1010" y="414" font-size="13" fill="#354c40">汉代遗址</text><text x="1010" y="464" font-size="20" fill="#354c40">05  华清宫</text><text x="1010" y="489" font-size="13" fill="#354c40">历史园林</text><text x="1010" y="539" font-size="20" fill="#354c40">06  兵马俑博物馆</text><text x="1010" y="564" font-size="13" fill="#354c40">考古遗址</text><text x="1010" y="614" font-size="20" fill="#354c40">07  翠华山</text><text x="1010" y="639" font-size="13" fill="#354c40">山地自然</text><text x="1010" y="689" font-size="20" fill="#354c40">08  古楼观</text><text x="1010" y="714" font-size="13" fill="#354c40">文化景观</text><text x="48" y="856" font-size="16" fill="#354c40">圆心 = 景观落点；虚线圈 = 位置允许区域；编号对应右侧地点</text><text x="48" y="882" font-size="14" fill="#354c40">密集城区尚需放大布局实验；小圆不表示景区真实面积。</text></svg>